<?xml version="1.0" standalone="no"?>
<!DOCTYPE svg PUBLIC "-//W3C//DTD SVG 20010904//EN"
 "http://www.w3.org/TR/2001/REC-SVG-20010904/DTD/svg10.dtd">
<svg version="1.0" xmlns="http://www.w3.org/2000/svg"
 width="160.000000pt" height="160.000000pt" viewBox="0 0 160.000000 160.000000"
 preserveAspectRatio="xMidYMid meet">

<g transform="translate(0.000000,160.000000) scale(0.100000,-0.100000)"
fill="#000000" stroke="none">
<path d="M1458 1081 l-3 -220 -115 71 c-432 264 -573 349 -576 345 -2 -2 -7
-101 -10 -220 -4 -119 -8 -217 -10 -217 -1 0 -163 99 -359 220 -197 121 -361
217 -366 214 -12 -7 -12 -951 0 -959 10 -5 76 34 506 298 l220 136 6 -215 c3
-118 9 -217 12 -221 7 -6 165 88 517 306 114 71 178 104 182 97 4 -6 8 -74 8
-151 0 -77 3 -171 7 -208 l6 -68 56 3 56 3 -4 335 c-2 184 -7 409 -10 500 l-6
165 -57 3 -58 3 -2 -220z"/>
</g>
</svg>
